<?xml version="1.0" encoding="UTF-8"?>
<svg width="14px" height="15px" viewBox="0 0 14 15" version="1.1" xmlns="http://www.w3.org/2000/svg" xmlns:xlink="http://www.w3.org/1999/xlink">
    <!-- Generator: Sketch 52.3 (67297) - http://www.bohemiancoding.com/sketch -->
    <title>icStarSelected</title>
    <desc>Created with Sketch.</desc>
    <g id="English" stroke="none" stroke-width="1" fill="none" fill-rule="evenodd">
        <g id="1.7-Moives-Detail-1" transform="translate(-259.000000, -356.000000)" fill="#D6182A">
            <g id="View">
                <g id="Moive_view">
                    <g id="star" transform="translate(190.000000, 356.000000)">
                        <path d="M75.0693177,12.9892886 L73.3549664,13.8905765 C72.6340127,14.2696043 71.7423015,13.9924185 71.3632737,13.2714649 C71.2123429,12.9843773 71.1602604,12.6555414 71.2150892,12.3358647 L71.5425012,10.4269064 C71.6537771,9.77811826 71.4386801,9.11611786 70.9673079,8.65664355 L69.5803685,7.30471176 C68.9971047,6.73617008 68.9851701,5.80244726 69.5537118,5.21918347 C69.7801081,4.98692477 70.0767552,4.83577549 70.3977289,4.78913529 L72.314432,4.51062202 C72.9658523,4.41596511 73.5289835,4.00682636 73.8203075,3.41653942 L74.6774832,1.67971176 C75.03796,0.949305893 75.9222952,0.649419168 76.6527011,1.00989601 C76.9435525,1.15343979 77.178973,1.38886031 77.3225168,1.67971176 L78.1796925,3.41653942 C78.4710165,4.00682636 79.0341477,4.41596511 79.685568,4.51062202 L81.6022711,4.78913529 C82.4083219,4.90626132 82.9668057,5.65464395 82.8496797,6.46069468 C82.8030395,6.78166831 82.6518902,7.07831548 82.4196315,7.30471176 L81.0326921,8.65664355 C80.5613199,9.11611786 80.3462229,9.77811826 80.4574988,10.4269064 L80.7849108,12.3358647 C80.9226007,13.1386584 80.3834275,13.9010711 79.5806338,14.038761 C79.2609571,14.0935898 78.9321212,14.0415073 78.6450336,13.8905765 L76.9306823,12.9892886 C76.3480342,12.6829724 75.6519658,12.6829724 75.0693177,12.9892886 Z" id="icStarSelected"></path>
                    </g>
                </g>
            </g>
        </g>
    </g>
</svg>