<?xml version="1.0" encoding="UTF-8"?>
<svg width="14px" height="15px" viewBox="0 0 14 15" version="1.1" xmlns="http://www.w3.org/2000/svg" xmlns:xlink="http://www.w3.org/1999/xlink">
    <!-- Generator: Sketch 52.3 (67297) - http://www.bohemiancoding.com/sketch -->
    <title>icStar</title>
    <desc>Created with Sketch.</desc>
    <g id="English" stroke="none" stroke-width="1" fill="none" fill-rule="evenodd">
        <g id="1.7-Moives-Detail-1" transform="translate(-282.000000, -356.000000)" fill="#D2D2D2">
            <g id="View">
                <g id="Moive_view">
                    <g id="star" transform="translate(190.000000, 356.000000)">
                        <path d="M98.0693177,12.9892886 L96.3549664,13.8905765 C95.6340127,14.2696043 94.7423015,13.9924185 94.3632737,13.2714649 C94.2123429,12.9843773 94.1602604,12.6555414 94.2150892,12.3358647 L94.5425012,10.4269064 C94.6537771,9.77811826 94.4386801,9.11611786 93.9673079,8.65664355 L92.5803685,7.30471176 C91.9971047,6.73617008 91.9851701,5.80244726 92.5537118,5.21918347 C92.7801081,4.98692477 93.0767552,4.83577549 93.3977289,4.78913529 L95.314432,4.51062202 C95.9658523,4.41596511 96.5289835,4.00682636 96.8203075,3.41653942 L97.6774832,1.67971176 C98.03796,0.949305893 98.9222952,0.649419168 99.6527011,1.00989601 C99.9435525,1.15343979 100.178973,1.38886031 100.322517,1.67971176 L101.179693,3.41653942 C101.471017,4.00682636 102.034148,4.41596511 102.685568,4.51062202 L104.602271,4.78913529 C105.408322,4.90626132 105.966806,5.65464395 105.84968,6.46069468 C105.803039,6.78166831 105.65189,7.07831548 105.419631,7.30471176 L104.032692,8.65664355 C103.56132,9.11611786 103.346223,9.77811826 103.457499,10.4269064 L103.784911,12.3358647 C103.922601,13.1386584 103.383428,13.9010711 102.580634,14.038761 C102.260957,14.0935898 101.932121,14.0415073 101.645034,13.8905765 L99.9306823,12.9892886 C99.3480342,12.6829724 98.6519658,12.6829724 98.0693177,12.9892886 Z" id="icStar"></path>
                    </g>
                </g>
            </g>
        </g>
    </g>
</svg>