<?xml version="1.0" encoding="UTF-8"?>
<svg width="25px" height="24px" viewBox="0 0 25 24" version="1.1" xmlns="http://www.w3.org/2000/svg" xmlns:xlink="http://www.w3.org/1999/xlink">
    <!-- Generator: Sketch 52.3 (67297) - http://www.bohemiancoding.com/sketch -->
    <title>tab-movies-selected</title>
    <desc>Created with Sketch.</desc>
    <defs>
        <linearGradient x1="20.016516%" y1="0%" x2="75.3624174%" y2="86.9751149%" id="linearGradient-1">
            <stop stop-color="#F99F00" offset="0%"></stop>
            <stop stop-color="#DB3069" offset="100%"></stop>
        </linearGradient>
    </defs>
    <g id="Symbols" stroke="none" stroke-width="1" fill="none" fill-rule="evenodd">
        <g id="MOVIES-hov" transform="translate(-50.000000, -9.000000)" fill="url(#linearGradient-1)">
            <g id="tab-movies-selected">
                <path d="M60.0639769,18.0574948 C59.5168959,18.0574948 59.003405,17.8158888 58.6847811,17.4087091 L52.5384618,9.55227174 C51.7458691,8.53914229 50,9.05249561 50,10.2986774 L50,32.5679061 C50,32.8065251 50.2112542,33 50.4719667,33 L53.6646567,33 C54.4286274,33 55.0478566,32.4330168 55.0478566,31.7336561 L55.0478566,26.4480585 C57.4851032,26.4480585 59.6961913,27.755677 60.6982587,29.7897428 L60.7623245,29.9198122 C61.075313,30.5550208 61.7658007,30.9634225 62.5270278,30.9634225 C63.2763167,30.9634225 63.9072617,30.5902536 64.1933336,30.0097611 L64.3016672,29.7897428 C65.3037345,27.755677 67.5148226,26.4480585 69.9520692,26.4480585 L69.9520692,31.7336561 C69.9520692,32.4330168 70.5712985,33 71.335195,33 L74.5279591,33 C74.7885975,33 75,32.8065251 75,32.5679061 L75,10.2420606 C75,9.00803033 73.2074904,8.50961192 72.3246568,9.60685201 L66.319223,17.4321297 C65.999042,17.8255965 65.4945974,18.0574948 64.958639,18.0574948 L60.0639769,18.0574948 Z"></path>
            </g>
        </g>
    </g>
</svg>